<?xml version="1.0" standalone="no"?>
<!DOCTYPE svg PUBLIC "-//W3C//DTD SVG 20010904//EN"
 "http://www.w3.org/TR/2001/REC-SVG-20010904/DTD/svg10.dtd">
<svg version="1.0" xmlns="http://www.w3.org/2000/svg"
 width="1019.000000pt" height="1024.000000pt" viewBox="0 0 1019.000000 1024.000000"
 preserveAspectRatio="xMidYMid meet">

<g transform="translate(0.000000,1024.000000) scale(0.100000,-0.100000)"
fill="#000000" stroke="none">
<path d="M10 5120 c0 -3407 3 -5120 10 -5120 7 0 10 1713 10 5120 0 3407 -3
5120 -10 5120 -7 0 -10 -1713 -10 -5120z"/>
<path d="M3535 10200 c-33 -21 -115 -64 -181 -94 -688 -314 -1594 -370 -2398
-150 -106 29 -131 33 -141 22 -12 -12 -270 -431 -293 -473 -9 -18 0 -36 54
-120 265 -410 420 -823 491 -1310 24 -167 24 -578 0 -760 -88 -661 -366 -1312
-810 -1898 -53 -70 -97 -130 -97 -134 0 -3 42 -49 93 -102 51 -53 130 -135
176 -183 l84 -87 -7 -198 c-20 -579 73 -1180 259 -1683 58 -158 223 -492 312
-633 330 -522 765 -925 1313 -1215 339 -179 807 -335 1255 -417 158 -29 474
-70 610 -80 169 -11 137 6 463 -257 163 -133 315 -256 336 -275 22 -18 46 -33
54 -33 14 0 145 104 478 382 l202 168 118 10 c610 55 1165 180 1614 364 463
190 925 509 1233 850 533 590 822 1255 933 2146 13 100 18 231 20 502 1 202 6
373 11 381 4 8 80 92 168 186 88 94 161 175 163 179 1 5 -35 56 -81 114 -396
499 -695 1159 -796 1758 -64 374 -62 765 5 1105 72 367 226 751 430 1073 32
51 67 106 77 121 l18 29 -153 252 c-142 232 -155 251 -178 247 -14 -2 -97 -23
-185 -45 -470 -120 -981 -150 -1469 -87 -402 53 -808 190 -1096 370 -24 16
-28 14 -140 -60 -305 -203 -681 -341 -1058 -389 -144 -19 -455 -21 -600 -5
-399 43 -774 179 -1121 407 -52 34 -97 62 -100 61 -4 0 -33 -18 -66 -39z m129
-195 c297 -190 644 -316 1021 -371 152 -23 625 -26 785 -6 126 16 279 46 375
73 203 58 458 171 654 288 46 28 90 51 97 51 7 0 46 -18 86 -40 255 -137 619
-254 938 -300 244 -35 388 -43 699 -37 373 7 632 39 905 113 50 13 90 23 91
21 1 -1 44 -69 95 -152 51 -82 93 -154 93 -160 0 -5 -25 -48 -55 -95 -232
-358 -402 -828 -464 -1285 -25 -182 -26 -619 -1 -795 51 -365 116 -617 244
-940 133 -337 352 -732 555 -999 26 -35 48 -69 48 -75 0 -6 -68 -82 -150 -170
l-150 -158 7 -82 c14 -150 8 -659 -11 -818 -94 -819 -360 -1457 -835 -2001
-231 -264 -518 -496 -846 -682 -531 -302 -1224 -490 -2036 -551 l-85 -6 -135
-115 c-74 -64 -212 -178 -307 -254 l-173 -139 -87 69 c-48 38 -188 153 -312
254 l-225 185 -95 7 c-713 50 -1363 211 -1861 461 -322 161 -568 335 -818 579
-577 562 -915 1280 -1016 2160 -20 175 -30 638 -17 805 l9 125 -151 158 c-83
87 -152 163 -154 167 -2 5 31 57 73 116 449 623 703 1261 780 1962 24 215 17
598 -14 797 -69 436 -256 931 -470 1248 l-48 71 95 156 c52 85 95 156 96 157
1 1 44 -10 96 -23 138 -36 315 -70 475 -91 201 -26 789 -26 985 0 402 54 767
162 1035 307 50 26 98 49 107 49 10 1 42 -15 72 -34z"/>
<path d="M6445 9576 c-264 -134 -565 -229 -876 -278 -126 -20 -182 -22 -454
-23 -275 0 -327 3 -465 23 -341 52 -682 161 -949 303 -59 32 -102 49 -115 46
-12 -3 -68 -25 -126 -50 -477 -201 -1113 -301 -1712 -268 -201 11 -397 30
-532 51 -33 5 -61 8 -62 7 -2 -2 19 -47 47 -100 177 -343 306 -761 360 -1162
28 -205 30 -577 5 -790 -37 -321 -106 -630 -202 -908 -31 -89 -58 -172 -61
-184 l-5 -23 3804 0 c2093 0 3807 2 3810 5 3 3 -21 80 -53 171 -93 262 -166
583 -205 904 -25 201 -25 651 -1 833 54 399 160 747 335 1100 43 86 76 157 73
157 -4 0 -76 -9 -161 -20 -347 -43 -644 -57 -925 -40 -500 28 -905 122 -1315
302 l-55 24 -160 -80z m460 -124 c83 -28 169 -56 193 -62 l42 -11 0 -1534 c0
-844 0 -1538 0 -1542 0 -5 -92 -9 -205 -11 l-205 -2 0 1611 c0 1285 3 1610 13
1606 6 -2 80 -27 162 -55z m-2754 -116 c249 -81 504 -126 792 -142 l127 -6 0
-429 0 -429 -615 0 -615 0 0 559 0 559 88 -34 c48 -19 148 -54 223 -78z m2169
-1476 l0 -1570 -205 0 -205 0 2 1501 3 1501 115 35 c63 19 151 49 195 67 44
19 83 34 88 35 4 0 7 -705 7 -1569z m-3519 965 l-1 -490 -600 -3 -600 -2 -5
22 c-3 13 -14 66 -26 118 -46 214 -127 457 -225 679 -35 79 -63 146 -61 147 1
2 59 -3 127 -12 407 -47 924 -39 1265 20 44 8 90 13 103 12 l23 -1 0 -490z
m6053 309 c-203 -462 -295 -899 -296 -1404 0 -441 74 -895 211 -1290 33 -97
45 -143 37 -146 -6 -2 -105 -3 -219 -2 l-207 3 -1 1475 0 1475 203 17 c112 9
232 21 268 25 36 5 66 6 68 3 1 -3 -27 -73 -64 -156z m-1094 136 c69 -6 144
-14 168 -16 l42 -5 0 -1480 0 -1479 -205 0 -205 0 0 1501 0 1502 38 -6 c20 -3
93 -11 162 -17z m-2260 -1520 l0 -1460 -180 0 -180 0 0 1450 0 1450 78 1 c42
1 109 5 147 9 39 4 85 8 103 8 l32 2 0 -1460z m-2696 -967 l1 -493 -709 0
c-671 0 -708 1 -701 18 4 9 28 80 52 157 60 189 117 428 148 615 14 85 28 165
31 178 l4 22 587 -2 587 -3 0 -492z m2264 0 l2 -493 -615 0 -615 0 0 495 0
495 613 -2 612 -3 3 -492z"/>
<path d="M4899 6076 c-73 -21 -148 -66 -191 -116 -215 -243 -145 -672 129
-797 152 -70 355 -24 469 105 37 43 70 110 59 120 -20 19 -204 94 -215 87 -5
-3 -10 -13 -10 -20 0 -26 -61 -85 -100 -96 -76 -23 -149 13 -193 95 -19 35
-22 57 -22 151 0 95 3 116 24 158 60 123 208 142 291 37 l30 -38 53 28 c28 15
73 35 100 45 26 10 47 21 47 24 0 20 -63 102 -102 134 -73 60 -148 89 -241 93
-50 2 -100 -2 -128 -10z"/>
<path d="M3472 5603 l3 -458 108 -3 107 -3 2 128 c2 70 3 155 3 188 l1 60 122
3 122 3 0 94 0 95 -120 0 -121 0 3 73 3 72 238 3 237 2 0 100 0 100 -355 0
-355 0 2 -457z"/>
<path d="M5900 5600 l0 -460 268 0 c298 0 333 5 418 63 70 46 108 112 112 196
6 99 -11 147 -69 204 l-50 48 30 37 c88 110 52 277 -74 342 -49 25 -51 25
-342 28 l-293 3 0 -461z m512 243 c23 -27 28 -51 19 -77 -15 -37 -55 -47 -186
-44 l-120 3 -3 68 -3 67 139 0 c120 0 141 -2 154 -17z m26 -333 c47 -44 38
-114 -19 -142 -27 -15 -60 -18 -166 -18 l-133 0 0 90 0 90 148 0 c135 0 150
-2 170 -20z"/>
<path d="M1006 4933 c-14 -56 -19 -551 -7 -700 55 -693 266 -1289 626 -1768
279 -372 613 -650 1045 -869 451 -229 1022 -369 1755 -428 256 -21 1169 -17
1415 5 474 44 924 128 1238 233 813 271 1422 783 1782 1499 186 368 298 760
352 1230 14 123 18 701 5 778 l-8 47 -4098 0 -4099 0 -6 -27z m3984 -713 c0
-6 -7 -24 -15 -40 -42 -82 -60 -244 -35 -327 12 -39 11 -41 -25 -89 -68 -88
-89 -147 -93 -254 -4 -108 17 -232 45 -263 10 -11 55 -51 101 -89 l82 -69 -31
-59 c-47 -88 -92 -135 -164 -171 -74 -36 -170 -49 -229 -29 -30 10 -36 15 -30
32 12 40 -54 78 -74 42 -7 -13 -17 -7 -53 34 -127 141 -193 403 -160 637 15
109 74 277 135 387 50 90 52 92 131 134 125 68 257 111 408 133 4 1 7 -4 7 -9z
m410 -25 c118 -32 293 -117 382 -185 189 -143 333 -342 402 -553 23 -70 61
-265 54 -273 -2 -2 -34 43 -71 99 -174 267 -368 454 -582 557 -131 64 -206 83
-331 84 -96 1 -103 -1 -172 -35 l-72 -35 -10 35 c-21 76 -2 198 46 293 l26 51
116 -6 c82 -4 146 -13 212 -32z m-1071 -317 c-65 -160 -89 -281 -89 -446 0
-105 5 -148 25 -227 32 -127 85 -234 154 -308 l56 -60 -35 -29 c-75 -63 -264
-161 -330 -170 -22 -3 -27 4 -52 67 -54 139 -72 237 -72 395 -1 104 4 169 17
230 24 112 86 266 145 362 48 79 177 238 193 238 5 0 -1 -24 -12 -52z m1098
-39 c166 -51 343 -174 496 -345 105 -116 222 -283 281 -401 l37 -72 -15 -93
c-9 -52 -25 -124 -36 -161 l-21 -68 -58 60 c-102 103 -263 162 -398 145 -51
-6 -53 -6 -53 18 0 136 -148 282 -299 295 -64 6 -100 -3 -203 -49 l-67 -30
-62 53 c-34 30 -75 65 -91 79 -26 22 -31 36 -45 125 -8 55 -12 121 -9 147 5
47 48 143 83 186 l19 24 24 -39 c31 -47 80 -60 80 -21 0 13 -9 37 -20 53 -11
17 -20 36 -20 42 0 17 42 43 104 65 63 23 172 18 273 -13z m0 -703 c122 -57
188 -162 163 -258 -39 -143 -198 -339 -369 -452 -199 -133 -481 -201 -747
-181 l-97 7 -55 52 c-81 76 -192 229 -192 264 0 6 24 18 53 27 78 26 193 88
274 149 l71 54 59 -20 c87 -30 197 -22 286 20 90 42 165 117 208 210 l34 72
90 40 c106 47 149 50 222 16z m516 -333 c73 -35 172 -125 183 -167 3 -15 -5
-40 -26 -77 -187 -318 -502 -525 -865 -569 -231 -28 -508 31 -700 148 l-60 37
145 6 c224 10 355 42 525 126 192 95 374 272 465 453 41 82 41 83 160 78 93
-3 113 -7 173 -35z"/>
</g>
</svg>
